<?xml version="1.0" standalone="no"?>
<!DOCTYPE svg PUBLIC "-//W3C//DTD SVG 20010904//EN"
 "http://www.w3.org/TR/2001/REC-SVG-20010904/DTD/svg10.dtd">
<svg version="1.0" xmlns="http://www.w3.org/2000/svg"
 width="320.000000pt" height="320.000000pt" viewBox="0 0 320.000000 320.000000"
 preserveAspectRatio="xMidYMid meet">

<g transform="translate(0.000000,320.000000) scale(0.100000,-0.100000)"
fill="#000000" stroke="none">
<path d="M1750 2569 c-205 -32 -416 -156 -523 -309 l-17 -24 -64 17 c-124 33
-272 17 -380 -41 -71 -37 -175 -145 -209 -214 -15 -32 -33 -83 -40 -115 l-14
-58 -59 -7 c-329 -37 -519 -393 -368 -690 59 -117 202 -223 333 -248 30 -5
199 -10 378 -10 l324 0 -3 53 -3 52 -158 3 -157 3 0 104 0 105 145 0 145 0 0
55 0 55 -145 0 -146 0 3 98 3 97 153 3 152 3 0 49 0 50 -210 0 -210 0 0 -311
0 -311 -138 4 c-132 3 -140 4 -204 36 -78 38 -138 101 -177 182 -21 46 -26 69
-26 145 0 78 4 98 29 152 31 69 107 148 172 181 58 29 147 45 214 37 l57 -7 5
79 c17 290 318 464 577 334 l54 -28 41 60 c143 215 376 330 635 314 181 -11
318 -74 452 -207 72 -71 93 -101 132 -180 50 -102 77 -210 77 -308 l0 -58 98
0 c89 1 102 -2 164 -31 82 -39 146 -100 183 -179 25 -51 29 -71 30 -149 0 -79
-4 -98 -29 -152 -49 -107 -158 -192 -268 -209 -37 -6 -42 -4 -70 30 -38 47
-76 66 -130 66 -108 0 -178 -88 -156 -197 12 -57 70 -109 131 -118 60 -9 129
21 157 67 17 30 27 35 87 46 312 59 478 387 341 672 -66 136 -218 244 -365
258 l-68 7 -7 60 c-24 191 -135 385 -294 513 -79 63 -218 132 -315 156 -85 21
-235 28 -319 15z"/>
<path d="M1200 1236 l0 -366 60 0 60 0 0 150 0 151 67 -3 68 -3 55 -147 55
-148 62 0 62 0 -64 158 -64 157 31 24 c45 36 68 93 68 175 0 88 -26 146 -83
184 -39 26 -46 27 -209 30 l-168 4 0 -366z m282 253 c44 -12 68 -49 68 -103 0
-86 -41 -116 -160 -116 l-70 0 0 115 0 115 63 0 c34 0 79 -5 99 -11z"/>
<path d="M1770 1235 l0 -367 163 4 c179 4 216 14 275 70 56 55 72 117 72 287
0 169 -13 231 -62 287 -61 69 -93 78 -280 82 l-168 4 0 -367z m318 237 c63
-33 77 -75 77 -237 0 -122 -3 -144 -20 -174 -36 -61 -66 -76 -166 -79 l-89 -4
0 262 0 263 82 -6 c48 -4 95 -14 116 -25z"/>
</g>
</svg>
